<svg width="59" height="39" viewBox="0 0 59 39" fill="none" xmlns="http://www.w3.org/2000/svg">
<g clip-path="url(#clip0_19465_1460)">
<path d="M23.0711 9.87285V14.2509H19.4226V11.692L11.8383 5.37691L4.61422 11.3918V35.8729H20.2816V39H0V9.87285L11.8574 0L23.0711 9.87285Z" fill="#F0BA4E"/>
<path d="M23.0711 15.4126H7.11279V19.5002H23.0711V15.4126Z" fill="white" fill-opacity="0.6"/>
<path d="M7.11279 22.5601H23.0711V26.8487H11.5355V29.4398H23.0711V33.5498H7.11279V22.5601Z" fill="white" fill-opacity="0.6"/>
<path d="M59 15.4126H43.0417V19.5002H59V15.4126Z" fill="white" fill-opacity="0.6"/>
<path d="M43.0417 22.5601H59V26.8487H47.4645V29.4398H59V33.5498H43.0417V22.5601Z" fill="white" fill-opacity="0.6"/>
<path d="M42.1299 24.3917C42.13 26.4477 41.4102 28.4415 40.0905 30.04C38.7709 31.6385 36.9314 32.7449 34.8793 33.1745C32.8272 33.604 30.6868 33.3307 28.8157 32.4001C26.9446 31.4695 25.4561 29.938 24.5987 28.0614C23.7414 26.1849 23.5672 24.0769 24.1053 22.0897C24.6433 20.1025 25.8611 18.3563 27.555 17.1429C29.249 15.9295 31.3166 15.3223 33.4124 15.4229C35.5083 15.5234 37.5055 16.3255 39.0704 17.6952L35.587 21.1082C34.8075 20.5946 33.8888 20.3218 32.9495 20.3249C32.0102 20.3281 31.0934 20.6071 30.3176 21.1259C29.5417 21.6448 28.9425 22.3796 28.5972 23.2355C28.252 24.0914 28.1765 25.0291 28.3807 25.9275C28.5849 26.8258 29.0592 27.6435 29.7425 28.275C30.4258 28.9065 31.2867 29.3228 32.2139 29.4701C33.1411 29.6174 34.0921 29.4889 34.9441 29.1013C35.796 28.7136 36.5098 28.0846 36.9931 27.2955H31.3694V23.811H42.1107C42.1235 24.0034 42.1299 24.1969 42.1299 24.3917Z" fill="white" fill-opacity="0.6"/>
</g>
<defs>
<clipPath id="clip0_19465_1460">
<rect width="59" height="39" fill="white"/>
</clipPath>
</defs>
</svg>
