<svg width="24" height="39" viewBox="0 0 24 39" fill="none" xmlns="http://www.w3.org/2000/svg">
<path d="M20.8401 12.1099C20.3294 11.5989 19.7229 11.1935 19.0555 10.917C18.388 10.6404 17.6726 10.498 16.9501 10.498C16.2276 10.498 15.5122 10.6404 14.8448 10.917C14.1773 11.1935 13.5709 11.5989 13.0601 12.1099L12.0001 13.1699L10.9401 12.1099C9.90843 11.0782 8.50915 10.4986 7.05012 10.4986C5.59109 10.4986 4.19181 11.0782 3.16012 12.1099C2.12843 13.1416 1.54883 14.5408 1.54883 15.9999C1.54883 17.4589 2.12843 18.8582 3.16012 19.8899L4.22012 20.9499L12.0001 28.7299L19.7801 20.9499L20.8401 19.8899C21.3511 19.3791 21.7565 18.7727 22.033 18.1052C22.3096 17.4378 22.4519 16.7224 22.4519 15.9999C22.4519 15.2774 22.3096 14.562 22.033 13.8945C21.7565 13.2271 21.3511 12.6206 20.8401 12.1099V12.1099Z" stroke="#3C3C3B" stroke-width="2" stroke-linecap="round" stroke-linejoin="round"/>
</svg>
